<svg width="271" height="51" viewBox="0 0 271 51" fill="none" xmlns="http://www.w3.org/2000/svg">
<g clip-path="url(#clip0_49_2)">
<path d="M22.7637 33.9785L22.627 34.2861C21.7839 36.6104 21.3623 38.8206 21.3623 40.917C21.3623 41.9424 21.4535 42.9678 21.6357 43.9932C21.8408 45.0186 22.137 46.1123 22.5244 47.2744L22.6953 47.6504L22.5244 47.9238C22.5016 47.9694 22.3763 48.1745 22.1484 48.5391C21.9206 48.8809 21.5446 49.2568 21.0205 49.667C20.4964 50.0771 19.79 50.4531 18.9014 50.7949C18.0127 51.1139 16.8962 51.2734 15.5518 51.2734C14.2074 51.2734 13.0908 51.1025 12.2021 50.7607C11.3363 50.3962 10.6527 49.9974 10.1514 49.5645C9.65007 49.1087 9.29688 48.6986 9.0918 48.334C8.88672 47.9694 8.77279 47.7643 8.75 47.7188L8.61328 47.377L8.75 47.0693C9.27409 45.8161 9.66146 44.597 9.91211 43.4121C10.1628 42.2272 10.2881 41.0195 10.2881 39.7891C10.2881 38.946 10.2311 38.0801 10.1172 37.1914C10.026 36.2799 9.85514 35.3115 9.60449 34.2861V33.8418C9.9235 32.6797 10.1514 31.5859 10.2881 30.5605C10.4248 29.5352 10.4932 28.5326 10.4932 27.5527C10.4932 25.4792 10.14 23.3828 9.43359 21.2637L9.29688 20.9561L9.43359 20.6826C9.9349 19.4521 10.2881 18.2217 10.4932 16.9912C10.721 15.738 10.8577 14.4961 10.9033 13.2656H10.5615C8.2373 13.2656 5.92448 13.6872 3.62305 14.5303L3.34961 14.5986L3.00781 14.4619C2.96224 14.4619 2.75716 14.3594 2.39258 14.1543C2.02799 13.9492 1.61784 13.596 1.16211 13.0947C0.729167 12.5934 0.341797 11.9212 0 11.0781C-0.364583 10.2122 -0.546875 9.11849 -0.546875 7.79688C-0.546875 6.56641 -0.375977 5.5638 -0.0341797 4.78906C0.307617 3.99154 0.683594 3.36491 1.09375 2.90918C1.52669 2.43066 1.91406 2.10026 2.25586 1.91797C2.62044 1.71289 2.82552 1.59896 2.87109 1.57617L3.14453 1.43945L3.48633 1.57617C4.48893 1.94076 5.49154 2.2028 6.49414 2.3623C7.49674 2.49902 8.53353 2.56738 9.60449 2.56738C10.5615 2.56738 11.5869 2.5332 12.6807 2.46484C13.7972 2.3737 14.8454 2.14583 15.8252 1.78125L16.0986 1.64453L16.3721 1.78125C17.5342 2.16862 18.6279 2.45345 19.6533 2.63574C20.7015 2.81803 21.7383 2.90918 22.7637 2.90918C24.6094 2.90918 26.6374 2.55599 28.8477 1.84961L29.2578 1.71289L29.5996 1.98633C29.6224 2.00911 29.7705 2.13444 30.0439 2.3623C30.3174 2.59017 30.6022 2.94336 30.8984 3.42188C31.2174 3.8776 31.5023 4.47005 31.7529 5.19922C32.0264 5.9056 32.1745 6.7487 32.1973 7.72852C32.1973 8.75391 32.0719 9.65397 31.8213 10.4287C31.5706 11.1807 31.2858 11.8187 30.9668 12.3428C30.6706 12.8441 30.3857 13.2314 30.1123 13.5049C29.8389 13.7555 29.6908 13.915 29.668 13.9834L29.3262 14.2568L28.8477 14.1201C27.6855 13.7555 26.6146 13.5049 25.6348 13.3682C24.6777 13.2087 23.7207 13.1289 22.7637 13.1289H21.7725C21.7269 13.4479 21.7155 13.7555 21.7383 14.0518C21.7611 14.3252 21.7725 14.5986 21.7725 14.8721C21.7725 15.8291 21.8294 16.7633 21.9434 17.6748C22.0801 18.5863 22.2738 19.4977 22.5244 20.4092V20.8193C22.1826 22.0954 21.9206 23.2689 21.7383 24.3398C21.5788 25.4108 21.499 26.459 21.499 27.4844C21.499 28.5326 21.5902 29.5579 21.7725 30.5605C21.9548 31.5632 22.2396 32.6113 22.627 33.7051L22.7637 33.9785ZM67.0264 33.1582C67.1631 33.9102 67.2314 34.6051 67.2314 35.2432C67.2314 35.9495 67.1631 36.5876 67.0264 37.1572C66.8896 37.7041 66.7301 38.1826 66.5479 38.5928C66.3883 38.9801 66.2288 39.2992 66.0693 39.5498C65.9326 39.7777 65.8529 39.903 65.8301 39.9258L65.5566 40.3018L65.0781 40.2334C64.7591 40.1878 64.4401 40.165 64.1211 40.165C63.8021 40.165 63.4831 40.165 63.1641 40.165C63.4831 41.2816 63.8818 42.3639 64.3604 43.4121C64.8389 44.4603 65.3743 45.4743 65.9668 46.4541L66.3428 47.001L65.8984 47.5137C65.8757 47.5365 65.7503 47.6618 65.5225 47.8896C65.3174 48.0947 64.9984 48.3454 64.5654 48.6416C64.1325 48.915 63.5742 49.2113 62.8906 49.5303C62.2298 49.8493 61.4437 50.1113 60.5322 50.3164C60.0993 50.4303 59.6663 50.5215 59.2334 50.5898C58.8232 50.6354 58.4131 50.6582 58.0029 50.6582C57.4105 50.6582 56.8636 50.6126 56.3623 50.5215C55.8838 50.4303 55.4736 50.3278 55.1318 50.2139C54.79 50.0771 54.5166 49.9632 54.3115 49.8721C54.1292 49.7809 54.0267 49.7354 54.0039 49.7354L53.5254 49.4619L53.5938 48.915C53.5938 48.6188 53.6051 48.334 53.6279 48.0605C53.6507 47.7871 53.6621 47.5023 53.6621 47.2061C53.6621 45.6338 53.5254 44.0729 53.252 42.5234C53.1608 42.6146 53.0811 42.6602 53.0127 42.6602L52.5342 42.7969C51.0986 42.7969 49.6289 42.888 48.125 43.0703C46.6211 43.2526 45.1286 43.583 43.6475 44.0615V45.1211C43.6475 46.1009 43.7158 47.0807 43.8525 48.0605L43.9209 48.4023L43.7158 48.6758C43.693 48.6986 43.5791 48.8239 43.374 49.0518C43.1689 49.2796 42.8499 49.5303 42.417 49.8037C41.984 50.0771 41.4372 50.3278 40.7764 50.5557C40.1156 50.7607 39.318 50.8633 38.3838 50.8633C36.5609 50.8633 35.1139 50.6012 34.043 50.0771C32.9948 49.5531 32.1859 48.9606 31.6162 48.2998C30.9554 47.5479 30.5111 46.6934 30.2832 45.7363L30.2148 45.4629L30.4199 45.1895C31.582 43.4121 32.4365 41.5208 32.9834 39.5156C33.5531 37.4876 33.8379 35.3001 33.8379 32.9531V31.7568L33.9746 31.3467C34.8633 29.5693 35.5127 27.8034 35.9229 26.0488C36.3558 24.2715 36.5723 22.4827 36.5723 20.6826C36.5723 20.2269 36.5609 19.7712 36.5381 19.3154C36.5153 18.8597 36.4811 18.404 36.4355 17.9482L36.3672 17.6064L36.5723 17.333C38.7598 13.9834 39.8535 10.3604 39.8535 6.46387C39.8535 6.12207 39.8421 5.76888 39.8193 5.4043C39.7965 5.01693 39.7624 4.62956 39.7168 4.24219V3.83203L40.0244 3.52441C40.0472 3.50163 40.1611 3.42188 40.3662 3.28516C40.5941 3.12565 40.9017 2.96615 41.2891 2.80664C41.6764 2.62435 42.1436 2.46484 42.6904 2.32812C43.2601 2.19141 43.9095 2.12305 44.6387 2.12305C46.0514 2.12305 47.2477 2.33952 48.2275 2.77246C49.2301 3.2054 50.0391 3.68392 50.6543 4.20801C51.2695 4.7321 51.7139 5.21061 51.9873 5.64355C52.2835 6.0765 52.443 6.30436 52.4658 6.32715L52.6709 6.77148L52.4658 7.18164C52.3747 7.27279 52.3291 7.34115 52.3291 7.38672H52.8076C53.8102 7.38672 54.5964 7.45508 55.166 7.5918C55.7585 7.72852 56.0775 7.79688 56.123 7.79688L56.5332 8.10449L56.4648 8.58301C56.4193 8.85645 56.3965 9.12988 56.3965 9.40332C56.3965 9.65397 56.3965 9.91602 56.3965 10.1895C56.3965 14.2454 57.3535 17.9596 59.2676 21.332L59.4043 21.7422V22.665C59.4043 23.8499 59.4499 24.9893 59.541 26.083C59.6322 27.154 59.8145 28.1794 60.0879 29.1592C60.5436 28.9769 60.988 28.7832 61.4209 28.5781C61.8538 28.373 62.2754 28.1452 62.6855 27.8945L63.0273 27.6895L63.4717 27.8262C63.4945 27.849 63.6426 27.9515 63.916 28.1338C64.2122 28.3161 64.5426 28.6123 64.9072 29.0225C65.2946 29.4326 65.682 29.9795 66.0693 30.6631C66.4795 31.3239 66.7985 32.1556 67.0264 33.1582ZM48.6035 24.4082L48.125 22.8018C47.6009 24.1689 47.2135 25.5247 46.9629 26.8691C46.7122 28.2135 46.5869 29.5352 46.5869 30.834V31.7568C47.5667 31.415 48.501 31.0163 49.3896 30.5605L49.9365 30.4238C50.096 30.4694 50.2555 30.5036 50.415 30.5264C50.5745 30.5492 50.7227 30.5605 50.8594 30.5605C50.6087 29.5807 50.2897 28.5895 49.9023 27.5869C49.5378 26.5615 49.1048 25.502 48.6035 24.4082ZM100.181 44.335C100.181 45.3604 100.044 46.2604 99.7705 47.0352C99.4971 47.8099 99.1895 48.4593 98.8477 48.9834C98.5059 49.5075 98.1868 49.9176 97.8906 50.2139C97.5944 50.4873 97.4349 50.6354 97.4121 50.6582L97.0361 50.9316L96.626 50.7949C94.1878 49.9518 91.8066 49.5303 89.4824 49.5303C87.5456 49.5303 85.6543 49.8151 83.8086 50.3848H83.3301C82.8743 50.2253 82.373 50.0999 81.8262 50.0088C81.2793 49.8949 80.7324 49.7809 80.1855 49.667C79.6159 50.0544 78.9095 50.3962 78.0664 50.6924C77.2461 50.9886 76.1979 51.1367 74.9219 51.1367C73.5775 51.1367 72.4609 50.9658 71.5723 50.624C70.7064 50.2594 70.0114 49.8607 69.4873 49.4277C68.986 48.972 68.6328 48.5618 68.4277 48.1973C68.2227 47.8327 68.1201 47.6276 68.1201 47.582L67.9834 47.2061L68.1201 46.9326C68.6442 45.6566 69.0316 44.3691 69.2822 43.0703C69.5329 41.7487 69.6582 40.3815 69.6582 38.9688C69.6582 38.0117 69.6012 37.0547 69.4873 36.0977C69.3962 35.1178 69.2253 34.1152 68.9746 33.0898V32.6455C69.248 31.529 69.4645 30.4352 69.624 29.3643C69.8063 28.2705 69.8975 27.1768 69.8975 26.083C69.8975 24.8525 69.7949 23.6562 69.5898 22.4941C69.3848 21.332 69.1113 20.1699 68.7695 19.0078L68.7012 18.7344L68.8379 18.4609C69.8177 15.9544 70.3076 13.4593 70.3076 10.9756C70.3076 9.97298 70.2279 8.98177 70.0684 8.00195C69.9316 7.02214 69.7038 6.01953 69.3848 4.99414L69.248 4.58398L69.5215 4.24219C69.5443 4.2194 69.681 4.08268 69.9316 3.83203C70.1823 3.55859 70.5583 3.27376 71.0596 2.97754C71.5837 2.65853 72.2331 2.38509 73.0078 2.15723C73.7826 1.90658 74.7054 1.78125 75.7764 1.78125C76.8701 1.78125 77.8158 1.92936 78.6133 2.22559C79.4108 2.49902 80.0716 2.80664 80.5957 3.14844C81.1426 3.49023 81.5527 3.80924 81.8262 4.10547C82.0996 4.40169 82.2477 4.5612 82.2705 4.58398L82.6123 4.92578L82.4072 5.37012C81.9971 6.62337 81.6781 7.85384 81.4502 9.06152C81.2451 10.2464 81.1426 11.4427 81.1426 12.6504C81.1426 13.6074 81.1995 14.5417 81.3135 15.4531C81.4502 16.3418 81.6553 17.2419 81.9287 18.1533V18.666C81.2223 21.1497 80.8691 23.5309 80.8691 25.8096C80.8691 26.9717 80.9603 28.111 81.1426 29.2275C81.3249 30.3213 81.6097 31.415 81.9971 32.5088L82.1338 32.8164L81.9971 33.0898C81.6781 33.8874 81.4274 34.7077 81.2451 35.5508C81.0628 36.3711 80.9147 37.2028 80.8008 38.0459C81.0286 38.0003 81.2679 37.9661 81.5186 37.9434C81.7692 37.8978 81.9971 37.8522 82.2021 37.8066C82.4528 37.7611 82.6921 37.7269 82.9199 37.7041L83.1934 37.5674L83.4668 37.7041C84.6973 38.1598 85.9163 38.513 87.124 38.7637C88.3545 38.9915 89.6077 39.1055 90.8838 39.1055C91.8636 39.1055 92.8548 39.0371 93.8574 38.9004C94.86 38.7409 95.874 38.5016 96.8994 38.1826L97.4121 38.0459L97.7539 38.3193C97.7767 38.3421 97.9134 38.4788 98.1641 38.7295C98.4147 38.9574 98.6768 39.3219 98.9502 39.8232C99.2464 40.3018 99.5199 40.917 99.7705 41.6689C100.021 42.4209 100.158 43.3096 100.181 44.335ZM135.249 44.8477C135.249 44.8932 135.215 45.1211 135.146 45.5312C135.101 45.9414 134.93 46.4427 134.634 47.0352C134.338 47.6048 133.859 48.2201 133.198 48.8809C132.56 49.5417 131.66 50.1341 130.498 50.6582C129.792 50.9772 129.142 51.1937 128.55 51.3076C127.98 51.4215 127.433 51.4785 126.909 51.4785C126.294 51.4785 125.747 51.4102 125.269 51.2734C124.79 51.1367 124.38 50.9772 124.038 50.7949C123.719 50.6126 123.468 50.4531 123.286 50.3164C123.127 50.1569 123.035 50.0544 123.013 50.0088L122.773 49.8037L122.705 49.4619C122.66 48.4821 122.568 47.5934 122.432 46.7959C122.295 45.9756 122.09 45.1895 121.816 44.4375C121.543 43.6628 121.19 42.888 120.757 42.1133C120.347 41.3385 119.857 40.4954 119.287 39.584L118.604 38.9004V38.5244C118.558 37.932 118.49 37.3281 118.398 36.7129C118.33 36.0977 118.228 35.4938 118.091 34.9014C116.268 36.2458 114.73 37.7839 113.477 39.5156V40.3018C113.477 41.4639 113.568 42.6146 113.75 43.7539C113.932 44.8932 114.24 46.0439 114.673 47.2061L114.81 47.582L114.673 47.8555C114.65 47.901 114.525 48.1061 114.297 48.4707C114.069 48.8125 113.693 49.1999 113.169 49.6328C112.645 50.043 111.927 50.4189 111.016 50.7607C110.127 51.1025 109.01 51.2734 107.666 51.2734C106.322 51.2734 105.205 51.0911 104.316 50.7266C103.451 50.362 102.756 49.9632 102.231 49.5303C101.73 49.0745 101.377 48.6644 101.172 48.2998C100.967 47.9124 100.864 47.696 100.864 47.6504L100.728 47.377L100.864 47.001C101.388 45.7477 101.776 44.4603 102.026 43.1387C102.277 41.8171 102.402 40.4727 102.402 39.1055C102.402 38.1484 102.345 37.18 102.231 36.2002C102.14 35.2204 101.969 34.2064 101.719 33.1582V32.7139C101.992 31.5973 102.209 30.5036 102.368 29.4326C102.55 28.3389 102.642 27.2451 102.642 26.1514C102.642 24.9437 102.539 23.7588 102.334 22.5967C102.129 21.4346 101.855 20.2839 101.514 19.1445L101.445 18.8027L101.582 18.5293C102.083 17.2988 102.448 16.0684 102.676 14.8379C102.926 13.5846 103.052 12.3428 103.052 11.1123C103.052 10.1097 102.972 9.11849 102.812 8.13867C102.676 7.13607 102.448 6.12207 102.129 5.09668L101.992 4.65234L102.266 4.31055C102.288 4.28776 102.425 4.15104 102.676 3.90039C102.926 3.62695 103.302 3.34212 103.804 3.0459C104.328 2.72689 104.977 2.45345 105.752 2.22559C106.527 1.97493 107.45 1.84961 108.521 1.84961C109.614 1.84961 110.56 1.99772 111.357 2.29395C112.155 2.56738 112.816 2.875 113.34 3.2168C113.887 3.55859 114.297 3.8776 114.57 4.17383C114.844 4.47005 114.992 4.62956 115.015 4.65234L115.356 4.99414L115.151 5.43848C114.741 6.69173 114.422 7.93359 114.194 9.16406C113.989 10.3717 113.887 11.5566 113.887 12.7188C113.887 13.6758 113.944 14.61 114.058 15.5215C114.194 16.4102 114.399 17.3216 114.673 18.2559V18.7344C114.536 19.1901 114.422 19.6458 114.331 20.1016C114.24 20.5345 114.137 20.9674 114.023 21.4004C114.912 20.375 115.675 19.304 116.313 18.1875C116.974 17.071 117.544 15.8747 118.022 14.5986L118.159 14.3252L118.433 14.1885C120.506 12.9808 122.272 11.5566 123.73 9.91602C125.212 8.2526 126.396 6.29297 127.285 4.03711L127.49 3.62695L127.9 3.52441C127.946 3.52441 128.049 3.50163 128.208 3.45605C128.368 3.41048 128.595 3.3877 128.892 3.3877C129.484 3.3877 130.247 3.52441 131.182 3.79785C132.139 4.07129 133.164 4.64095 134.258 5.50684C135.101 6.19043 135.75 6.89681 136.206 7.62598C136.662 8.33236 136.992 8.99316 137.197 9.6084C137.425 10.2008 137.55 10.7021 137.573 11.1123C137.619 11.4997 137.642 11.7048 137.642 11.7275V12.2061L137.197 12.5137C135.192 13.7669 133.506 15.1911 132.139 16.7861C130.771 18.3584 129.689 20.1471 128.892 22.1523L128.516 22.4941C128.037 22.8587 127.57 23.2347 127.114 23.6221C126.659 23.9867 126.226 24.3626 125.815 24.75C126.203 26.3678 126.738 27.8717 127.422 29.2617C128.128 30.6289 129.006 31.9277 130.054 33.1582L130.225 33.5684C130.452 34.7305 130.68 35.79 130.908 36.7471C131.136 37.6813 131.421 38.5586 131.763 39.3789C132.127 40.1992 132.56 40.9967 133.062 41.7715C133.563 42.5462 134.201 43.3551 134.976 44.1982L135.249 44.5059V44.8477ZM172.676 33.9785L172.539 34.2861C171.696 36.6104 171.274 38.8206 171.274 40.917C171.274 41.9424 171.366 42.9678 171.548 43.9932C171.753 45.0186 172.049 46.1123 172.437 47.2744L172.607 47.6504L172.437 47.9238C172.414 47.9694 172.288 48.1745 172.061 48.5391C171.833 48.8809 171.457 49.2568 170.933 49.667C170.409 50.0771 169.702 50.4531 168.813 50.7949C167.925 51.1139 166.808 51.2734 165.464 51.2734C164.119 51.2734 163.003 51.1025 162.114 50.7607C161.248 50.3962 160.565 49.9974 160.063 49.5645C159.562 49.1087 159.209 48.6986 159.004 48.334C158.799 47.9694 158.685 47.7643 158.662 47.7188L158.525 47.377L158.662 47.0693C159.186 45.8161 159.574 44.597 159.824 43.4121C160.075 42.2272 160.2 41.0195 160.2 39.7891C160.2 38.946 160.143 38.0801 160.029 37.1914C159.938 36.2799 159.767 35.3115 159.517 34.2861V33.8418C159.836 32.6797 160.063 31.5859 160.2 30.5605C160.337 29.5352 160.405 28.5326 160.405 27.5527C160.405 25.4792 160.052 23.3828 159.346 21.2637L159.209 20.9561L159.346 20.6826C159.847 19.4521 160.2 18.2217 160.405 16.9912C160.633 15.738 160.77 14.4961 160.815 13.2656H160.474C158.149 13.2656 155.837 13.6872 153.535 14.5303L153.262 14.5986L152.92 14.4619C152.874 14.4619 152.669 14.3594 152.305 14.1543C151.94 13.9492 151.53 13.596 151.074 13.0947C150.641 12.5934 150.254 11.9212 149.912 11.0781C149.548 10.2122 149.365 9.11849 149.365 7.79688C149.365 6.56641 149.536 5.5638 149.878 4.78906C150.22 3.99154 150.596 3.36491 151.006 2.90918C151.439 2.43066 151.826 2.10026 152.168 1.91797C152.533 1.71289 152.738 1.59896 152.783 1.57617L153.057 1.43945L153.398 1.57617C154.401 1.94076 155.404 2.2028 156.406 2.3623C157.409 2.49902 158.446 2.56738 159.517 2.56738C160.474 2.56738 161.499 2.5332 162.593 2.46484C163.709 2.3737 164.757 2.14583 165.737 1.78125L166.011 1.64453L166.284 1.78125C167.446 2.16862 168.54 2.45345 169.565 2.63574C170.614 2.81803 171.65 2.90918 172.676 2.90918C174.521 2.90918 176.549 2.55599 178.76 1.84961L179.17 1.71289L179.512 1.98633C179.535 2.00911 179.683 2.13444 179.956 2.3623C180.229 2.59017 180.514 2.94336 180.811 3.42188C181.13 3.8776 181.414 4.47005 181.665 5.19922C181.938 5.9056 182.087 6.7487 182.109 7.72852C182.109 8.75391 181.984 9.65397 181.733 10.4287C181.483 11.1807 181.198 11.8187 180.879 12.3428C180.583 12.8441 180.298 13.2314 180.024 13.5049C179.751 13.7555 179.603 13.915 179.58 13.9834L179.238 14.2568L178.76 14.1201C177.598 13.7555 176.527 13.5049 175.547 13.3682C174.59 13.2087 173.633 13.1289 172.676 13.1289H171.685C171.639 13.4479 171.628 13.7555 171.65 14.0518C171.673 14.3252 171.685 14.5986 171.685 14.8721C171.685 15.8291 171.742 16.7633 171.855 17.6748C171.992 18.5863 172.186 19.4977 172.437 20.4092V20.8193C172.095 22.0954 171.833 23.2689 171.65 24.3398C171.491 25.4108 171.411 26.459 171.411 27.4844C171.411 28.5326 171.502 29.5579 171.685 30.5605C171.867 31.5632 172.152 32.6113 172.539 33.7051L172.676 33.9785ZM198.208 4.92578L198.003 5.37012C197.593 6.62337 197.274 7.85384 197.046 9.06152C196.841 10.2464 196.738 11.4427 196.738 12.6504C196.738 13.6074 196.795 14.5417 196.909 15.4531C197.046 16.3418 197.251 17.2419 197.524 18.1533V18.666C196.818 21.1497 196.465 23.5309 196.465 25.8096C196.465 26.9717 196.556 28.111 196.738 29.2275C196.921 30.3213 197.205 31.415 197.593 32.5088L197.729 32.8164L197.593 33.0898C197.16 34.252 196.841 35.4255 196.636 36.6104C196.431 37.7725 196.328 38.9574 196.328 40.165C196.328 41.3499 196.419 42.5234 196.602 43.6855C196.784 44.8249 197.091 45.9756 197.524 47.1377L197.661 47.5137L197.524 47.7871C197.502 47.8327 197.376 48.0378 197.148 48.4023C196.921 48.7441 196.545 49.1201 196.021 49.5303C195.496 49.9404 194.779 50.3164 193.867 50.6582C192.979 50.9772 191.862 51.1367 190.518 51.1367C189.173 51.1367 188.057 50.9658 187.168 50.624C186.302 50.2594 185.607 49.8607 185.083 49.4277C184.582 48.972 184.229 48.5618 184.023 48.1973C183.818 47.8327 183.716 47.6276 183.716 47.582L183.579 47.2061L183.716 46.9326C184.24 45.6566 184.627 44.3691 184.878 43.0703C185.129 41.7487 185.254 40.3815 185.254 38.9688C185.254 38.0117 185.197 37.0547 185.083 36.0977C184.992 35.1178 184.821 34.1152 184.57 33.0898V32.6455C184.844 31.529 185.06 30.4352 185.22 29.3643C185.402 28.2705 185.493 27.1768 185.493 26.083C185.493 24.8525 185.391 23.6562 185.186 22.4941C184.98 21.332 184.707 20.1699 184.365 19.0078L184.297 18.7344L184.434 18.4609C185.413 15.9544 185.903 13.4593 185.903 10.9756C185.903 9.97298 185.824 8.98177 185.664 8.00195C185.527 7.02214 185.299 6.01953 184.98 4.99414L184.844 4.58398L185.117 4.24219C185.14 4.2194 185.277 4.08268 185.527 3.83203C185.778 3.55859 186.154 3.27376 186.655 2.97754C187.179 2.65853 187.829 2.38509 188.604 2.15723C189.378 1.90658 190.301 1.78125 191.372 1.78125C192.466 1.78125 193.411 1.92936 194.209 2.22559C195.007 2.49902 195.667 2.80664 196.191 3.14844C196.738 3.49023 197.148 3.80924 197.422 4.10547C197.695 4.40169 197.843 4.5612 197.866 4.58398L198.208 4.92578ZM235.771 9.12988L235.566 9.57422C235.042 10.4629 234.598 11.306 234.233 12.1035C233.892 12.8783 233.607 13.6416 233.379 14.3936C233.151 15.1455 232.992 15.9089 232.9 16.6836C232.809 17.4355 232.764 18.2331 232.764 19.0762C232.764 19.3268 232.764 19.5775 232.764 19.8281C232.764 20.0788 232.786 20.3408 232.832 20.6143L232.695 21.127C232.217 22.0612 231.795 22.9499 231.431 23.793C231.089 24.6361 230.804 25.4564 230.576 26.2539C230.371 27.0286 230.212 27.8148 230.098 28.6123C230.007 29.387 229.961 30.196 229.961 31.0391C229.961 31.4264 229.972 31.8138 229.995 32.2012C230.018 32.5885 230.052 32.9987 230.098 33.4316L229.961 33.9785C228.913 35.7559 228.115 37.5902 227.568 39.4814C227.021 41.3499 226.748 43.321 226.748 45.3945C226.748 45.7819 226.759 46.1693 226.782 46.5566C226.805 46.944 226.839 47.3314 226.885 47.7188V47.9922L226.68 48.2656C226.657 48.3112 226.543 48.4479 226.338 48.6758C226.156 48.9036 225.859 49.1543 225.449 49.4277C225.062 49.6784 224.561 49.9176 223.945 50.1455C223.353 50.3506 222.635 50.4531 221.792 50.4531H220.801C220.094 50.9089 219.229 51.3304 218.203 51.7178C217.201 52.1279 216.084 52.333 214.854 52.333C214.01 52.333 213.281 52.2191 212.666 51.9912C212.074 51.7861 211.572 51.5583 211.162 51.3076C210.775 51.057 210.479 50.8177 210.273 50.5898C210.091 50.362 209.989 50.2367 209.966 50.2139L209.727 49.9404L209.829 49.5986C209.875 49.1429 209.909 48.6986 209.932 48.2656C209.954 47.8327 209.966 47.3883 209.966 46.9326C209.966 45.1097 209.727 43.2982 209.248 41.498C208.792 39.6751 208.075 37.8522 207.095 36.0293L206.958 35.585C206.958 30.7087 205.739 26.3223 203.301 22.4258L203.164 21.8789C203.21 21.4232 203.244 20.9788 203.267 20.5459C203.289 20.113 203.301 19.6686 203.301 19.2129C203.301 15.4759 202.298 11.9782 200.293 8.71973L200.088 8.37793L200.293 7.93359C200.293 7.95638 200.418 7.7513 200.669 7.31836C200.92 6.88542 201.341 6.4069 201.934 5.88281C202.549 5.33594 203.358 4.83464 204.36 4.37891C205.363 3.92318 206.616 3.69531 208.12 3.69531C208.804 3.69531 209.419 3.76367 209.966 3.90039C210.513 4.01432 210.98 4.15104 211.367 4.31055C211.755 4.47005 212.051 4.61816 212.256 4.75488C212.484 4.8916 212.62 4.97135 212.666 4.99414L213.042 5.30176V5.78027C212.996 6.09928 212.974 6.41829 212.974 6.7373C212.974 7.03353 212.974 7.34115 212.974 7.66016C212.974 9.64258 213.201 11.5111 213.657 13.2656C214.113 14.9974 214.842 16.6608 215.845 18.2559L215.913 18.7344C215.913 20.9902 216.107 23.041 216.494 24.8867C216.904 26.7324 217.542 28.5098 218.408 30.2188C219.183 28.6009 219.753 27.0742 220.117 25.6387C220.482 24.1803 220.664 22.6195 220.664 20.9561C220.664 20.6143 220.664 20.2725 220.664 19.9307C220.664 19.5661 220.641 19.1901 220.596 18.8027L220.732 18.2559C221.302 17.39 221.769 16.5697 222.134 15.7949C222.521 14.9974 222.829 14.2113 223.057 13.4365C223.307 12.6618 223.478 11.8757 223.569 11.0781C223.683 10.2578 223.74 9.38053 223.74 8.44629C223.74 8.12728 223.729 7.80827 223.706 7.48926C223.683 7.17025 223.672 6.82845 223.672 6.46387V6.05371L223.945 5.78027C223.968 5.75749 224.082 5.67773 224.287 5.54102C224.492 5.4043 224.777 5.25618 225.142 5.09668C225.506 4.93717 225.951 4.78906 226.475 4.65234C226.999 4.51562 227.603 4.44727 228.286 4.44727C229.608 4.44727 230.736 4.67513 231.67 5.13086C232.604 5.5638 233.356 6.04232 233.926 6.56641C234.518 7.09049 234.94 7.5804 235.19 8.03613C235.464 8.46908 235.612 8.69694 235.635 8.71973L235.771 9.12988ZM263.423 26.835C263.423 27.8604 263.286 28.7604 263.013 29.5352C262.739 30.2871 262.432 30.9251 262.09 31.4492C261.748 31.9733 261.429 32.3721 261.133 32.6455C260.859 32.9189 260.711 33.0671 260.688 33.0898L260.347 33.3633L259.868 33.2266C258.592 32.7936 257.464 32.4746 256.484 32.2695C255.527 32.0645 254.57 31.9619 253.613 31.9619C252.907 31.9619 252.212 32.0303 251.528 32.167L251.733 32.5771L251.87 32.8848L251.733 33.1582C251.187 34.7077 250.811 36.2458 250.605 37.7725C250.97 37.6813 251.38 37.6016 251.836 37.5332C252.292 37.4648 252.725 37.4079 253.135 37.3623C253.545 37.3167 253.887 37.2826 254.16 37.2598C254.434 37.237 254.582 37.2256 254.604 37.2256L254.878 37.123L255.151 37.2939C256.45 37.818 257.555 38.2168 258.467 38.4902C259.378 38.7637 260.301 38.9004 261.235 38.9004C261.873 38.9004 262.568 38.832 263.32 38.6953C264.072 38.5586 264.927 38.3649 265.884 38.1143L266.294 37.9775L266.636 38.251C266.659 38.2965 266.784 38.4447 267.012 38.6953C267.262 38.9232 267.524 39.2878 267.798 39.7891C268.071 40.2676 268.322 40.8828 268.55 41.6348C268.778 42.3639 268.892 43.2412 268.892 44.2666C268.869 45.292 268.709 46.1807 268.413 46.9326C268.117 47.6846 267.798 48.3226 267.456 48.8467C267.114 49.348 266.795 49.7354 266.499 50.0088C266.203 50.2822 266.043 50.4303 266.021 50.4531L265.576 50.6582L265.166 50.5215C263.822 50.0202 262.705 49.667 261.816 49.4619C260.928 49.234 260.062 49.1201 259.219 49.1201C258.626 49.1201 258.011 49.1771 257.373 49.291C256.735 49.3822 255.994 49.5303 255.151 49.7354H254.673C254.035 49.6214 253.397 49.4961 252.759 49.3594C252.144 49.1999 251.517 49.0518 250.879 48.915C250.651 49.1657 250.355 49.4391 249.99 49.7354C249.648 50.0088 249.215 50.2594 248.691 50.4873C248.19 50.7152 247.598 50.8975 246.914 51.0342C246.253 51.1937 245.501 51.2734 244.658 51.2734C243.314 51.2734 242.197 51.0911 241.309 50.7266C240.443 50.362 239.748 49.9632 239.224 49.5303C238.722 49.0745 238.369 48.6644 238.164 48.2998C237.959 47.9124 237.856 47.696 237.856 47.6504L237.72 47.377L237.856 47.001C238.381 45.7477 238.768 44.4603 239.019 43.1387C239.269 41.8171 239.395 40.4727 239.395 39.1055C239.395 38.1484 239.338 37.18 239.224 36.2002C239.132 35.2204 238.962 34.2064 238.711 33.1582V32.7139C238.984 31.5973 239.201 30.5036 239.36 29.4326C239.543 28.3389 239.634 27.2451 239.634 26.1514C239.634 24.9437 239.531 23.7588 239.326 22.5967C239.121 21.4346 238.848 20.2839 238.506 19.1445L238.438 18.8027L238.574 18.5293C239.076 17.2988 239.44 16.0684 239.668 14.8379C239.919 13.5846 240.044 12.3428 240.044 11.1123C240.044 10.1097 239.964 9.11849 239.805 8.13867C239.668 7.13607 239.44 6.12207 239.121 5.09668L238.984 4.65234L239.258 4.31055C239.281 4.28776 239.417 4.15104 239.668 3.90039C239.919 3.62695 240.295 3.34212 240.796 3.0459C241.32 2.72689 241.969 2.45345 242.744 2.22559C243.519 1.97493 244.442 1.84961 245.513 1.84961C246.743 1.84961 247.791 2.02051 248.657 2.3623C249.523 2.7041 250.218 3.06868 250.742 3.45605C251.403 3.3877 252.098 3.28516 252.827 3.14844C253.556 3.01172 254.285 2.81803 255.015 2.56738L255.288 2.43066L255.664 2.49902C256.758 2.84082 257.703 3.10286 258.501 3.28516C259.321 3.44466 260.096 3.52441 260.825 3.52441C261.623 3.52441 262.454 3.42188 263.32 3.2168C264.186 3.01172 265.2 2.7041 266.362 2.29395L266.772 2.12305L267.148 2.3623C267.171 2.38509 267.319 2.51042 267.593 2.73828C267.866 2.96615 268.162 3.31934 268.481 3.79785C268.8 4.25358 269.097 4.84603 269.37 5.5752C269.666 6.28158 269.849 7.14746 269.917 8.17285V8.78809C269.917 9.69954 269.803 10.5085 269.575 11.2148C269.347 11.9212 269.085 12.5251 268.789 13.0264C268.516 13.5049 268.254 13.8695 268.003 14.1201C267.775 14.3708 267.65 14.5075 267.627 14.5303L267.285 14.8037L266.772 14.667C265.679 14.4163 264.744 14.234 263.97 14.1201C263.195 13.9834 262.477 13.915 261.816 13.915C261.042 13.915 260.267 14.0062 259.492 14.1885C258.74 14.348 257.829 14.5986 256.758 14.9404L256.279 15.0088C255.322 14.8265 254.399 14.6898 253.511 14.5986C252.645 14.5075 251.768 14.4619 250.879 14.4619C250.947 15.0999 251.038 15.738 251.152 16.376C251.289 16.9912 251.46 17.6178 251.665 18.2559V18.7344C251.528 19.1445 251.414 19.5547 251.323 19.9648C251.255 20.3522 251.187 20.7624 251.118 21.1953C251.779 21.3776 252.394 21.5029 252.964 21.5713C253.556 21.6396 254.172 21.6738 254.81 21.6738C255.653 21.6738 256.507 21.6055 257.373 21.4688C258.239 21.3092 259.185 21.07 260.21 20.751L260.62 20.6143L260.962 20.8877C260.985 20.9105 261.121 21.0472 261.372 21.2979C261.646 21.5257 261.93 21.8903 262.227 22.3916C262.546 22.8701 262.819 23.4854 263.047 24.2373C263.298 24.9665 263.423 25.8324 263.423 26.835Z" fill="url(#paint0_linear_49_2)"/>
</g>
<defs>
<linearGradient id="paint0_linear_49_2" x1="23.3439" y1="0.574992" x2="253.211" y2="50.7323" gradientUnits="userSpaceOnUse">
<stop stop-color="#F17A0A"/>
<stop offset="0.514602" stop-color="#D07ACD"/>
<stop offset="1" stop-color="#5C3EC7"/>
</linearGradient>
<clipPath id="clip0_49_2">
<rect width="271" height="51" fill="white"/>
</clipPath>
</defs>
</svg>
