<svg width="179" height="26" viewBox="0 0 179 26" fill="none" xmlns="http://www.w3.org/2000/svg">
<path d="M4.736 25V22.78L7.659 22.04V4.132H3.774L2.701 8.276H0.074V1.024H21.053V8.276H18.389L17.316 4.132H13.616V22.04L16.539 22.78V25H4.736ZM20.0829 25V22.78L22.4879 22.262L29.9249 0.727999H35.2529L43.0229 22.114L45.6499 22.78V25H33.4399V22.78L36.7329 22.225L35.5119 18.414H28.1119L26.8169 22.188L30.1469 22.78V25H20.0829ZM29.2219 15.158H34.4759L32.3299 7.869L32.0709 6.315H31.7749L31.4789 7.869L29.2219 15.158ZM46.1298 25V22.78L49.0528 22.04V3.984L46.1298 3.244V1.024H57.8218V3.207L55.0098 3.947V21.67L56.3048 21.929H60.7078L61.7438 17.711H64.4078V25H46.1298ZM65.4969 25V22.78L68.4199 22.04V3.984L65.4969 3.244V1.024H77.2999V3.244L74.3769 3.984V11.865H74.7469L80.7409 4.391V3.688L79.1129 3.244V1.024H87.9929V3.244L85.2919 4.021L79.1129 11.606L86.2539 22.003L89.2879 22.78V25H83.0349C82.3936 25 81.8879 24.8273 81.5179 24.482C81.1479 24.1367 80.7779 23.6927 80.4079 23.15L74.5989 14.492H74.3769V22.04L77.2999 22.78V25H65.4969ZM105.113 25V22.78L108.036 22.04V4.132H104.151L103.078 8.276H100.451V1.024H121.43V8.276H118.766L117.693 4.132H113.993V22.04L116.916 22.78V25H105.113ZM122.515 25V22.78L125.438 22.04V3.984L122.515 3.244V1.024H134.318V3.244L131.395 3.984V22.04L134.318 22.78V25H122.515ZM144.715 25.518L137.167 3.984L134.577 3.281V1.024H146.898V3.318L143.864 3.984L148.008 18.599L148.082 19.487H148.304L148.415 18.599L152.855 3.984L149.858 3.318V1.024H159.404V3.281L156.74 3.984L149.747 25.518H144.715ZM159.659 25V22.78L162.582 22.04V3.984L159.659 3.244V1.024H178.529V8.276H175.791L174.829 4.095H169.686L168.539 4.354V11.347H171.61L172.535 8.683H174.607V17.489H172.535L171.61 14.455H168.539V21.892C168.884 21.9167 169.18 21.9413 169.427 21.966C169.674 21.966 169.97 21.966 170.315 21.966H175.199L176.235 17.304H178.862V25H159.659Z" fill="white"/>
</svg>
